<?xml version="1.0" encoding="utf-8"?>
<!-- Svg Vector Icons : http://www.onlinewebfonts.com/icon -->
<!DOCTYPE svg PUBLIC "-//W3C//DTD SVG 1.1//EN" "http://www.w3.org/Graphics/SVG/1.1/DTD/svg11.dtd">
<svg version="1.1" xmlns="http://www.w3.org/2000/svg" xmlns:xlink="http://www.w3.org/1999/xlink" x="0px" y="0px" viewBox="0 0 256 256" enable-background="new 0 0 256 256" xml:space="preserve">
<metadata> Svg Vector Icons : http://www.onlinewebfonts.com/icon </metadata>
<g><g><g><path fill="#000000" d="M96.9,10c-8.5,1-17.6,5.7-24.8,12.8c-9.4,9.3-14.8,20.9-14.9,32.1c-0.1,11.2,4,18.7,12.4,23c4.3,2.2,5.3,2.4,10.5,2.4c10.5,0,18.8-3.9,28.1-13.2c5.4-5.3,6.8-7.3,9.6-12.9c6.9-14.1,6.8-27.3-0.3-36.3c-2.8-3.6-8.4-6.8-12.6-7.3c-1.7-0.2-3.8-0.5-4.5-0.6C99.6,9.9,98.1,9.9,96.9,10z"/><path fill="#000000" d="M164.5,11.9c-15.4,3.9-29.9,18.9-34.1,35.2c-1.7,6.9-1.1,16.7,1.4,21.8c8.1,17,31.1,16.5,48.6-0.8c5-5,6.5-7,9.2-12.6c3.9-7.9,5.4-13.3,5.4-19.6c0-14.1-8.7-24-21.8-24.7C170.3,11,166.6,11.3,164.5,11.9z"/><path fill="#000000" d="M213.5,61.6c-3.8,0.8-12,4-15.9,6.3c-9.4,5.5-18.7,17.2-21.7,27.4c-3.6,12.1,1.1,24.2,11.3,29.1c5.2,2.5,14.9,3.1,21.8,1.3c20.5-5.3,37.7-26,36.1-43.4c-1.3-13-11.2-21.3-25.2-21.1C217.1,61.3,214.2,61.4,213.5,61.6z"/><path fill="#000000" d="M51.5,88.1c-20.7,4.6-37.3,19.4-40.8,36.4c-3.1,14.9,4.7,35.4,17.2,45.2c2.2,1.7,7.7,5.1,12.4,7.5c11.8,6.1,17.4,9.8,23.1,15.6c5.8,5.8,9.5,11.3,16,24c7.7,14.9,15.6,22.1,30.2,27.2c5.8,2,7.7,2.3,13.5,2.3c7.6,0,12.1-1.1,18.8-4.6c11.4-6,20.4-17.9,24.7-32.9c3.4-11.7,3.1-22.7-1-37c-2.4-8.4-3.2-14-4.2-29.8c-1.3-19.8-3.8-27.4-11.8-35.3c-8.7-8.6-15.2-10.7-37.4-12.2c-16.6-1.2-19.5-1.6-29.7-4.6c-6.1-1.8-8.7-2.2-16.7-2.4C59,87.1,55.1,87.3,51.5,88.1z"/><path fill="#000000" d="M213.8,134.1c-3.3,0.6-7.7,2.2-11.9,4.3c-5.6,2.8-7.6,4.3-12.9,9.6c-12.5,12.5-16.7,27.2-11.2,38.5c11,22.3,50,13.5,64.2-14.5C253.5,149.2,238.7,129.4,213.8,134.1z"/></g></g></g>
</svg>